# xmcd CD database file
#
# Track frame offsets:
#	150
#	20834
#	34643
#
# Disc length: 741 seconds
#
# Revision: 0
# Processed by: cddbd v1.5.2PL0 Copyright (c) Steve Scherf et al.
# Submitted via: CDex 1.51
#
DISCID=1d02e303
DTITLE=Johnny Boyd - Starlight EP
DYEAR=2007
DGENRE=Jazz
TTITLE0=Starlight
TTITLE1=Palace Hotel
TTITLE2=Angie's Song (Baby Don't You Know)
EXTD=YEAR: 2007
EXTT0=
EXTT1=
EXTT2=
PLAYORDER=
